<svg width="251" height="93" viewBox="0 0 251 93" fill="none" xmlns="http://www.w3.org/2000/svg">
<path d="M35.584 92.024C33.4507 92.024 31.2747 91.5547 29.056 90.616C26.9227 89.592 25.856 87.9707 25.856 85.752V25.848C25.856 23.1173 26.5387 21.24 27.904 20.216C29.2693 19.192 30.3787 18.552 31.232 18.296H6.528C4.48 18.296 2.944 17.4 1.92 15.608C0.981333 13.7307 0.512 11.8107 0.512 9.848C0.512 7.71466 1.024 5.79466 2.048 4.088C3.072 2.296 4.56533 1.39999 6.528 1.39999H63.744C65.7067 1.39999 67.2 2.296 68.224 4.088C69.248 5.79466 69.76 7.71466 69.76 9.848C69.76 11.8107 69.248 13.7307 68.224 15.608C67.2853 17.4 65.792 18.296 63.744 18.296H44.288V85.752C44.288 87.8853 43.392 89.464 41.6 90.488C39.8933 91.512 37.888 92.024 35.584 92.024ZM92.508 83.448C92.508 89.1653 89.5213 92.024 83.548 92.024C80.6467 92.024 78.3427 91.2987 76.636 89.848C74.9293 88.3973 74.076 86.264 74.076 83.448V30.584C74.076 20.5147 76.2093 12.92 80.476 7.8C84.828 2.59466 91.228 -0.00800323 99.676 -0.00800323C105.905 -0.00800323 111.068 1.272 115.164 3.83199C119.26 6.392 121.991 10.0613 123.356 14.84C124.721 10.0613 127.452 6.392 131.548 3.83199C135.644 1.272 140.892 -0.00800323 147.292 -0.00800323C155.996 -0.00800323 162.439 2.50933 166.62 7.544C170.801 12.4933 172.892 20.1733 172.892 30.584V82.168C172.892 85.6667 172.209 88.184 170.844 89.72C169.479 91.256 167.175 92.024 163.932 92.024C160.689 92.024 158.3 91.256 156.764 89.72C155.228 88.0987 154.46 85.5813 154.46 82.168V29.56C154.46 21.112 150.833 16.888 143.58 16.888C139.911 16.888 137.18 18.1253 135.388 20.6C133.596 22.9893 132.7 26.8293 132.7 32.12V80.888C132.7 84.3867 132.017 86.904 130.652 88.44C129.287 89.976 126.983 90.744 123.74 90.744C120.497 90.744 118.108 89.976 116.572 88.44C115.036 86.8187 114.268 84.3013 114.268 80.888V32.12C114.268 21.9653 110.641 16.888 103.388 16.888C96.1347 16.888 92.508 21.112 92.508 29.56V83.448ZM208.508 83.448C208.508 89.1653 205.521 92.024 199.548 92.024C196.647 92.024 194.343 91.2987 192.636 89.848C190.929 88.3973 190.076 86.264 190.076 83.448V32.76C190.076 20.984 192.465 12.5787 197.244 7.544C202.023 2.50933 209.489 -0.00800323 219.644 -0.00800323C230.055 -0.00800323 237.735 2.552 242.684 7.672C247.633 12.792 250.108 21.1547 250.108 32.76V83.448C250.108 89.1653 247.121 92.024 241.148 92.024C238.247 92.024 235.943 91.2987 234.236 89.848C232.529 88.3973 231.676 86.264 231.676 83.448V52.6C230.055 54.0507 228.263 55.288 226.3 56.312C224.423 57.336 222.204 57.848 219.644 57.848C215.889 57.848 213.073 58.5307 211.196 59.896C209.404 61.2613 208.508 63.6933 208.508 67.192V83.448ZM207.74 45.944C209.105 44.5787 210.727 43.512 212.604 42.744C214.567 41.976 216.913 41.592 219.644 41.592C222.887 41.592 225.361 41.336 227.068 40.824C228.86 40.312 230.097 39.3307 230.78 37.88C231.463 36.4293 231.804 34.296 231.804 31.48C231.804 25.1653 230.908 20.856 229.116 18.552C227.324 16.1627 224.124 14.968 219.516 14.968C215.249 14.968 212.305 16.2053 210.684 18.68C209.148 21.0693 208.38 25.5067 208.38 31.992C208.38 35.32 208.337 38.136 208.252 40.44C208.167 42.744 207.996 44.5787 207.74 45.944Z" fill="white"/>
</svg>
