<svg width="382" height="382" viewBox="0 0 382 382" fill="none" xmlns="http://www.w3.org/2000/svg">
<rect width="382" height="382" rx="191" fill="url(#paint0_linear_9_43)"/>
<path d="M97.084 236.524C94.9507 236.524 92.7747 236.055 90.556 235.116C88.4227 234.092 87.356 232.471 87.356 230.252V170.348C87.356 167.617 88.0387 165.74 89.404 164.716C90.7693 163.692 91.8787 163.052 92.732 162.796H68.028C65.98 162.796 64.444 161.9 63.42 160.108C62.4813 158.231 62.012 156.311 62.012 154.348C62.012 152.215 62.524 150.295 63.548 148.588C64.572 146.796 66.0653 145.9 68.028 145.9H125.244C127.207 145.9 128.7 146.796 129.724 148.588C130.748 150.295 131.26 152.215 131.26 154.348C131.26 156.311 130.748 158.231 129.724 160.108C128.785 161.9 127.292 162.796 125.244 162.796H105.788V230.252C105.788 232.385 104.892 233.964 103.1 234.988C101.393 236.012 99.388 236.524 97.084 236.524ZM154.008 227.948C154.008 233.665 151.021 236.524 145.048 236.524C142.147 236.524 139.843 235.799 138.136 234.348C136.429 232.897 135.576 230.764 135.576 227.948V175.084C135.576 165.015 137.709 157.42 141.976 152.3C146.328 147.095 152.728 144.492 161.176 144.492C167.405 144.492 172.568 145.772 176.664 148.332C180.76 150.892 183.491 154.561 184.856 159.34C186.221 154.561 188.952 150.892 193.048 148.332C197.144 145.772 202.392 144.492 208.792 144.492C217.496 144.492 223.939 147.009 228.12 152.044C232.301 156.993 234.392 164.673 234.392 175.084V226.668C234.392 230.167 233.709 232.684 232.344 234.22C230.979 235.756 228.675 236.524 225.432 236.524C222.189 236.524 219.8 235.756 218.264 234.22C216.728 232.599 215.96 230.081 215.96 226.668V174.06C215.96 165.612 212.333 161.388 205.08 161.388C201.411 161.388 198.68 162.625 196.888 165.1C195.096 167.489 194.2 171.329 194.2 176.62V225.388C194.2 228.887 193.517 231.404 192.152 232.94C190.787 234.476 188.483 235.244 185.24 235.244C181.997 235.244 179.608 234.476 178.072 232.94C176.536 231.319 175.768 228.801 175.768 225.388V176.62C175.768 166.465 172.141 161.388 164.888 161.388C157.635 161.388 154.008 165.612 154.008 174.06V227.948ZM270.008 227.948C270.008 233.665 267.021 236.524 261.048 236.524C258.147 236.524 255.843 235.799 254.136 234.348C252.429 232.897 251.576 230.764 251.576 227.948V177.26C251.576 165.484 253.965 157.079 258.744 152.044C263.523 147.009 270.989 144.492 281.144 144.492C291.555 144.492 299.235 147.052 304.184 152.172C309.133 157.292 311.608 165.655 311.608 177.26V227.948C311.608 233.665 308.621 236.524 302.648 236.524C299.747 236.524 297.443 235.799 295.736 234.348C294.029 232.897 293.176 230.764 293.176 227.948V197.1C291.555 198.551 289.763 199.788 287.8 200.812C285.923 201.836 283.704 202.348 281.144 202.348C277.389 202.348 274.573 203.031 272.696 204.396C270.904 205.761 270.008 208.193 270.008 211.692V227.948ZM269.24 190.444C270.605 189.079 272.227 188.012 274.104 187.244C276.067 186.476 278.413 186.092 281.144 186.092C284.387 186.092 286.861 185.836 288.568 185.324C290.36 184.812 291.597 183.831 292.28 182.38C292.963 180.929 293.304 178.796 293.304 175.98C293.304 169.665 292.408 165.356 290.616 163.052C288.824 160.663 285.624 159.468 281.016 159.468C276.749 159.468 273.805 160.705 272.184 163.18C270.648 165.569 269.88 170.007 269.88 176.492C269.88 179.82 269.837 182.636 269.752 184.94C269.667 187.244 269.496 189.079 269.24 190.444Z" fill="white"/>
<defs>
<linearGradient id="paint0_linear_9_43" x1="-19.5" y1="-1.64533e-06" x2="318" y2="338" gradientUnits="userSpaceOnUse">
<stop stop-color="#06227F"/>
<stop offset="1" stop-color="#6B0505"/>
</linearGradient>
</defs>
</svg>
