<svg width="252" height="94" viewBox="0 0 252 94" fill="none" xmlns="http://www.w3.org/2000/svg">
<mask id="mask0_9_52" style="mask-type:alpha" maskUnits="userSpaceOnUse" x="0" y="0" width="252" height="94">
<g clip-path="url(#clip0_9_52)">
<path d="M36.084 92.524C33.9507 92.524 31.7747 92.0547 29.556 91.116C27.4227 90.092 26.356 88.4707 26.356 86.252V26.348C26.356 23.6173 27.0387 21.74 28.404 20.716C29.7693 19.692 30.8787 19.052 31.732 18.796H7.028C4.98 18.796 3.444 17.9 2.42 16.108C1.48133 14.2307 1.012 12.3107 1.012 10.348C1.012 8.21466 1.524 6.29466 2.548 4.588C3.572 2.796 5.06533 1.89999 7.028 1.89999H64.244C66.2067 1.89999 67.7 2.796 68.724 4.588C69.748 6.29466 70.26 8.21466 70.26 10.348C70.26 12.3107 69.748 14.2307 68.724 16.108C67.7853 17.9 66.292 18.796 64.244 18.796H44.788V86.252C44.788 88.3853 43.892 89.964 42.1 90.988C40.3933 92.012 38.388 92.524 36.084 92.524ZM93.008 83.948C93.008 89.6653 90.0213 92.524 84.048 92.524C81.1467 92.524 78.8427 91.7987 77.136 90.348C75.4293 88.8973 74.576 86.764 74.576 83.948V31.084C74.576 21.0147 76.7093 13.42 80.976 8.3C85.328 3.09466 91.728 0.491997 100.176 0.491997C106.405 0.491997 111.568 1.772 115.664 4.33199C119.76 6.892 122.491 10.5613 123.856 15.34C125.221 10.5613 127.952 6.892 132.048 4.33199C136.144 1.772 141.392 0.491997 147.792 0.491997C156.496 0.491997 162.939 3.00933 167.12 8.044C171.301 12.9933 173.392 20.6733 173.392 31.084V82.668C173.392 86.1667 172.709 88.684 171.344 90.22C169.979 91.756 167.675 92.524 164.432 92.524C161.189 92.524 158.8 91.756 157.264 90.22C155.728 88.5987 154.96 86.0813 154.96 82.668V30.06C154.96 21.612 151.333 17.388 144.08 17.388C140.411 17.388 137.68 18.6253 135.888 21.1C134.096 23.4893 133.2 27.3293 133.2 32.62V81.388C133.2 84.8867 132.517 87.404 131.152 88.94C129.787 90.476 127.483 91.244 124.24 91.244C120.997 91.244 118.608 90.476 117.072 88.94C115.536 87.3187 114.768 84.8013 114.768 81.388V32.62C114.768 22.4653 111.141 17.388 103.888 17.388C96.6347 17.388 93.008 21.612 93.008 30.06V83.948ZM209.008 83.948C209.008 89.6653 206.021 92.524 200.048 92.524C197.147 92.524 194.843 91.7987 193.136 90.348C191.429 88.8973 190.576 86.764 190.576 83.948V33.26C190.576 21.484 192.965 13.0787 197.744 8.044C202.523 3.00933 209.989 0.491997 220.144 0.491997C230.555 0.491997 238.235 3.052 243.184 8.172C248.133 13.292 250.608 21.6547 250.608 33.26V83.948C250.608 89.6653 247.621 92.524 241.648 92.524C238.747 92.524 236.443 91.7987 234.736 90.348C233.029 88.8973 232.176 86.764 232.176 83.948V53.1C230.555 54.5507 228.763 55.788 226.8 56.812C224.923 57.836 222.704 58.348 220.144 58.348C216.389 58.348 213.573 59.0307 211.696 60.396C209.904 61.7613 209.008 64.1933 209.008 67.692V83.948ZM208.24 46.444C209.605 45.0787 211.227 44.012 213.104 43.244C215.067 42.476 217.413 42.092 220.144 42.092C223.387 42.092 225.861 41.836 227.568 41.324C229.36 40.812 230.597 39.8307 231.28 38.38C231.963 36.9293 232.304 34.796 232.304 31.98C232.304 25.6653 231.408 21.356 229.616 19.052C227.824 16.6627 224.624 15.468 220.016 15.468C215.749 15.468 212.805 16.7053 211.184 19.18C209.648 21.5693 208.88 26.0067 208.88 32.492C208.88 35.82 208.837 38.636 208.752 40.94C208.667 43.244 208.496 45.0787 208.24 46.444Z" fill="white"/>
</g>
</mask>
<g mask="url(#mask0_9_52)">
<rect x="-65" y="-144" width="382" height="382" rx="191" fill="url(#paint0_linear_9_52)"/>
</g>
<defs>
<linearGradient id="paint0_linear_9_52" x1="-84.5" y1="-144" x2="253" y2="194" gradientUnits="userSpaceOnUse">
<stop offset="0.0689845" stop-color="#0834C9"/>
<stop offset="1" stop-color="#930909"/>
</linearGradient>
<clipPath id="clip0_9_52">
<rect width="251" height="93" fill="white" transform="translate(0.5 0.5)"/>
</clipPath>
</defs>
</svg>
